<?xml version="1.0" encoding="UTF-8"?>
<svg id="Lag_1" data-name="Lag 1" xmlns="http://www.w3.org/2000/svg" viewBox="0 0 1024 1024">
  <defs>
    <style>
      .cls-1 {
        fill: #fff;
      }
    </style>
  </defs>
  <path class="cls-1" d="M1024,0v1024H0V0h1024ZM333.14,702.13l143.9-142.66c2.57-1.15,8.36,2.65,11.43,3.57,20.54,6.19,38.77,4.76,57.93-4.96l145.58,146.42c-44.13,46.62-.01,118.86,62.05,104.03,71.4-17.06,58.33-129.16-21.57-123.57-4.5.31-18.31,4.53-20.43,3.56l-145.89-146.84c20.92-26.57,20.14-61.7.29-88.67l137.55-137.53c50.8,29.9,112.05-14.19,94.3-72.25-11.76-38.45-58.51-54.39-92.58-34.02-31.21,18.66-38.9,58.32-20.15,88.82l-139.02,138.64c-17.67-8.7-35.9-11.06-55.06-5.69-3.47.97-12.03,5.65-14.43,4.57-4.84-5.81-11.28-10.39-16.58-15.5-25.39-24.48-49.42-50.62-74.42-75.58-12.51-12.49-27.23-24.87-39.07-37.93-1.77-1.95-7.96-8.13-7.96-10.03,27.58-47.04-9.96-104-64.41-95.39-26.86,4.25-49.66,27.98-51.64,55.36-3.85,53.26,51.62,86.43,96.72,58.67l138.24,137.51c-18.21,23.46-20.48,53.23-6.45,79.38,1.76,3.27,7.54,8.61,5.6,11.5l-145.12,145.01c-6.05-.22-12-3.06-18.43-3.57-61.32-4.85-95.59,67.25-50.55,108.55,53.14,48.73,135.77-14.7,97.43-79.43-1.48-2.5-8.48-9.91-7.28-11.95Z"/>
  <path d="M333.14,702.13c-1.19,2.04,5.8,9.45,7.28,11.95,38.34,64.74-44.29,128.17-97.43,79.43-45.04-41.3-10.77-113.4,50.55-108.55,6.42.51,12.38,3.35,18.43,3.57l145.12-145.01c1.94-2.9-3.85-8.23-5.6-11.5-14.03-26.15-11.76-55.92,6.45-79.38l-138.24-137.51c-45.11,27.76-100.58-5.41-96.72-58.67,1.98-27.38,24.78-51.11,51.64-55.36,54.44-8.61,91.99,48.35,64.41,95.39,0,1.9,6.19,8.08,7.96,10.03,11.84,13.06,26.56,25.44,39.07,37.93,25,24.96,49.03,51.1,74.42,75.58,5.3,5.11,11.74,9.69,16.58,15.5,2.41,1.08,10.96-3.6,14.43-4.57,19.16-5.37,37.39-3.01,55.06,5.69l139.02-138.64c-18.75-30.5-11.06-70.16,20.15-88.82,34.07-20.37,80.83-4.43,92.58,34.02,17.75,58.06-43.5,102.15-94.3,72.25l-137.55,137.53c19.85,26.97,20.63,62.11-.29,88.67l145.89,146.84c2.12.97,15.93-3.24,20.43-3.56,79.91-5.59,92.98,106.51,21.57,123.57-62.06,14.83-106.18-57.41-62.05-104.03l-145.58-146.42c-19.16,9.71-37.39,11.14-57.93,4.96-3.07-.92-8.86-4.73-11.43-3.57l-143.9,142.66ZM321.99,280c17.12-43.26-38.72-77.04-67.96-39.47-18.38,23.61-2.18,59.13,27.44,61.51,7.89.63,14.1-1.1,21.53-3.04-.11-2.31-1.98-3.54-2.57-5.92-3.22-13.03,11.16-20.26,21.56-13.08ZM722,298.99c21.5,9.03,48.54-1.62,54.54-24.94,8.64-33.54-25.32-60.67-56.23-45.23-17.82,8.9-27.71,33.56-16.74,51.17,14.27-9.3,26.83,5.14,18.43,19.01ZM549.87,524.92c8.83-14.28,10.78-29.93,4.31-45.6-.71-1.71-3.47-7.58-4.6-8.4-2.46-1.78-6.96.14-10.77-1.21-5.33-1.89-8.68-7.72-7.22-13.23l-1-1.49c-11.87-5.39-24.26-4.42-36.49-.88.47,7.79-3.73,15.63-12.05,16.46-3.77.38-5.13-2.28-8.5,1.5-9.17,10.28-9.16,33.38-3.43,45.32,5,10.43,5.55,4.7,12.9,6.02,5.22.94,10,6.15,10.8,11.38.31,2.02-1.02,4.87.13,5.71,12.03,4.29,25.18,4.63,36.88-.65-1.21-11.96,7.59-20.13,19.04-14.92ZM317.98,722c-11.12,8.99-26.53,1.94-22.42-13.02-17.15-5.22-36.31,4.03-44.42,19.67-18.66,36.01,20.1,72.55,55.16,53.16,21.88-12.1,26.05-40.14,11.68-59.8ZM728.99,708c2.94,15.19-10.43,23.43-22.51,14.05-23.94,31.78,4.78,74.2,43.53,63.47,14.42-3.99,26.52-19.42,27.85-34.14,2.5-27.52-22.35-47.94-48.88-43.39Z"/>
  <path class="cls-1" d="M549.87,524.92c-11.45-5.21-20.26,2.96-19.04,14.92-11.7,5.28-24.86,4.94-36.88.65-1.15-.84.18-3.7-.13-5.71-.8-5.23-5.58-10.44-10.8-11.38-7.35-1.32-7.9,4.41-12.9-6.02-5.73-11.95-5.74-35.05,3.43-45.32,3.37-3.78,4.73-1.12,8.5-1.5,8.32-.83,12.52-8.67,12.05-16.46,12.22-3.54,24.62-4.51,36.49.88l1,1.49c-1.46,5.52,1.89,11.34,7.22,13.23,3.81,1.35,8.31-.57,10.77,1.21,1.13.82,3.89,6.69,4.6,8.4,6.47,15.67,4.52,31.32-4.31,45.6Z"/>
  <path class="cls-1" d="M728.99,708c26.53-4.56,51.38,15.86,48.88,43.39-1.34,14.72-13.43,30.15-27.85,34.14-38.75,10.73-67.47-31.69-43.53-63.47,12.08,9.37,25.44,1.14,22.51-14.05Z"/>
  <path class="cls-1" d="M317.98,722c14.37,19.66,10.19,47.7-11.68,59.8-35.05,19.4-73.82-17.14-55.16-53.16,8.11-15.64,27.27-24.89,44.42-19.67-4.11,14.96,11.31,22.01,22.42,13.02Z"/>
  <path class="cls-1" d="M722,298.99c8.4-13.87-4.16-28.3-18.43-19.01-10.97-17.61-1.07-42.27,16.74-51.17,30.91-15.44,64.87,11.69,56.23,45.23-6.01,23.32-33.05,33.98-54.54,24.94Z"/>
  <path class="cls-1" d="M321.99,280c-10.4-7.18-24.78.04-21.56,13.08.59,2.37,2.46,3.61,2.57,5.92-7.44,1.95-13.65,3.68-21.53,3.04-29.62-2.38-45.82-37.9-27.44-61.51,29.24-37.56,85.08-3.78,67.96,39.47Z"/>
</svg>